<svg xmlns="http://www.w3.org/2000/svg" xmlns:xlink="http://www.w3.org/1999/xlink" width="500" zoomAndPan="magnify" viewBox="0 0 375 374.999991" height="500" preserveAspectRatio="xMidYMid meet" version="1.0"><defs><g/><clipPath id="8c65a3b605"><path d="M 50 37 L 339 37 L 339 349 L 50 349 Z M 50 37 " clip-rule="nonzero"/></clipPath><clipPath id="341f8b6499"><path d="M 0 260.902344 L 249.242188 -24.28125 L 407.363281 113.914062 L 158.121094 399.097656 Z M 0 260.902344 " clip-rule="nonzero"/></clipPath><clipPath id="eb8bf61b21"><path d="M 0 260.902344 L 249.242188 -24.28125 L 407.363281 113.914062 L 158.121094 399.097656 Z M 0 260.902344 " clip-rule="nonzero"/></clipPath><clipPath id="f6b4dac702"><path d="M 8.25 148.152344 L 366.992188 148.152344 L 366.992188 226.847656 L 8.25 226.847656 Z M 8.25 148.152344 " clip-rule="nonzero"/></clipPath><clipPath id="7bf8cbe1e8"><path d="M 29.25 148.152344 L 345.75 148.152344 C 357.347656 148.152344 366.75 157.554688 366.75 169.152344 L 366.75 205.847656 C 366.75 217.445312 357.347656 226.847656 345.75 226.847656 L 29.25 226.847656 C 17.652344 226.847656 8.25 217.445312 8.25 205.847656 L 8.25 169.152344 C 8.25 157.554688 17.652344 148.152344 29.25 148.152344 Z M 29.25 148.152344 " clip-rule="nonzero"/></clipPath><clipPath id="799fa15136"><path d="M 0.25 0.152344 L 358.960938 0.152344 L 358.960938 78.847656 L 0.25 78.847656 Z M 0.25 0.152344 " clip-rule="nonzero"/></clipPath><clipPath id="f61a9b7e3a"><path d="M 21.25 0.152344 L 337.75 0.152344 C 349.347656 0.152344 358.75 9.554688 358.75 21.152344 L 358.75 57.847656 C 358.75 69.445312 349.347656 78.847656 337.75 78.847656 L 21.25 78.847656 C 9.652344 78.847656 0.25 69.445312 0.25 57.847656 L 0.25 21.152344 C 0.25 9.554688 9.652344 0.152344 21.25 0.152344 Z M 21.25 0.152344 " clip-rule="nonzero"/></clipPath><clipPath id="80b761776b"><rect x="0" width="359" y="0" height="79"/></clipPath><clipPath id="450581aa0d"><path d="M 244.371094 103.335938 L 274.769531 103.335938 L 274.769531 133.730469 L 244.371094 133.730469 Z M 244.371094 103.335938 " clip-rule="nonzero"/></clipPath><clipPath id="9690525470"><path d="M 259.570312 103.335938 C 251.175781 103.335938 244.371094 110.140625 244.371094 118.53125 C 244.371094 126.925781 251.175781 133.730469 259.570312 133.730469 C 267.964844 133.730469 274.769531 126.925781 274.769531 118.53125 C 274.769531 110.140625 267.964844 103.335938 259.570312 103.335938 Z M 259.570312 103.335938 " clip-rule="nonzero"/></clipPath><clipPath id="b85138dfe8"><path d="M 0.371094 0.335938 L 30.769531 0.335938 L 30.769531 30.730469 L 0.371094 30.730469 Z M 0.371094 0.335938 " clip-rule="nonzero"/></clipPath><clipPath id="8ce357f990"><path d="M 15.570312 0.335938 C 7.175781 0.335938 0.371094 7.140625 0.371094 15.53125 C 0.371094 23.925781 7.175781 30.730469 15.570312 30.730469 C 23.964844 30.730469 30.769531 23.925781 30.769531 15.53125 C 30.769531 7.140625 23.964844 0.335938 15.570312 0.335938 Z M 15.570312 0.335938 " clip-rule="nonzero"/></clipPath><clipPath id="378a9aa222"><rect x="0" width="31" y="0" height="31"/></clipPath><clipPath id="4e782a7919"><path d="M 115.414062 248.863281 L 145.808594 248.863281 L 145.808594 279.257812 L 115.414062 279.257812 Z M 115.414062 248.863281 " clip-rule="nonzero"/></clipPath><clipPath id="4ce23977a4"><path d="M 130.609375 248.863281 C 122.21875 248.863281 115.414062 255.667969 115.414062 264.0625 C 115.414062 272.453125 122.21875 279.257812 130.609375 279.257812 C 139.003906 279.257812 145.808594 272.453125 145.808594 264.0625 C 145.808594 255.667969 139.003906 248.863281 130.609375 248.863281 Z M 130.609375 248.863281 " clip-rule="nonzero"/></clipPath><clipPath id="0fc4561347"><path d="M 0.414062 0.863281 L 30.808594 0.863281 L 30.808594 31.257812 L 0.414062 31.257812 Z M 0.414062 0.863281 " clip-rule="nonzero"/></clipPath><clipPath id="0a83eeb89b"><path d="M 15.609375 0.863281 C 7.21875 0.863281 0.414062 7.667969 0.414062 16.0625 C 0.414062 24.453125 7.21875 31.257812 15.609375 31.257812 C 24.003906 31.257812 30.808594 24.453125 30.808594 16.0625 C 30.808594 7.667969 24.003906 0.863281 15.609375 0.863281 Z M 15.609375 0.863281 " clip-rule="nonzero"/></clipPath><clipPath id="f3f7899c7c"><rect x="0" width="31" y="0" height="32"/></clipPath></defs><g clip-path="url(#8c65a3b605)"><g clip-path="url(#341f8b6499)"><g clip-path="url(#eb8bf61b21)"><path fill="#ffffff" d="M 79.058594 328.058594 C 32.25 289.039062 43.78125 210.816406 107.363281 188.882812 C 128.308594 181.65625 151.335938 180.105469 176.300781 178.621094 C 177.433594 178.550781 177.613281 178.21875 177.539062 177.164062 C 174.769531 138.289062 169.15625 80.601562 218.144531 49.488281 C 238.761719 36.394531 260.921875 34.140625 283.652344 42.929688 C 359.738281 72.355469 354.835938 174.40625 277.972656 198.417969 C 258.589844 204.476562 237.722656 206.101562 212.535156 207.5625 C 211.1875 207.640625 211.011719 208.050781 211.097656 209.273438 C 213.132812 237.722656 215.480469 268.488281 204.847656 294.65625 C 183.210938 347.914062 124.550781 365.828125 79.0625 328.058594 Z M 100.546875 301.679688 C 128.1875 323.535156 158.355469 313.949219 172.640625 288.125 C 184.984375 265.808594 182.238281 235.632812 180.171875 210.175781 C 180.101562 209.316406 179.691406 209.40625 179.132812 209.460938 C 158.078125 211.609375 134.855469 211.375 115.492188 219.738281 C 77.964844 235.945312 74.515625 279.09375 100.546875 301.679688 Z M 288.242188 84.664062 C 261.910156 63.105469 230.292969 71.113281 215.40625 99.167969 C 203.695312 121.242188 206.441406 151.253906 208.4375 175.9375 C 208.507812 176.796875 208.875 176.8125 209.542969 176.742188 C 238.929688 173.742188 279.660156 175.496094 297.953125 145.753906 C 310.136719 125.941406 306.101562 100.203125 288.242188 84.664062 Z M 288.242188 84.664062 " fill-opacity="1" fill-rule="nonzero"/></g></g></g><g clip-path="url(#f6b4dac702)"><g clip-path="url(#7bf8cbe1e8)"><g transform="matrix(1, 0, 0, 1, 8, 148)"><g clip-path="url(#80b761776b)"><g clip-path="url(#799fa15136)"><g clip-path="url(#f61a9b7e3a)"><path fill="#0eff67" d="M 0.25 0.152344 L 358.683594 0.152344 L 358.683594 78.847656 L 0.25 78.847656 Z M 0.25 0.152344 " fill-opacity="1" fill-rule="nonzero"/></g></g></g></g></g></g><g clip-path="url(#450581aa0d)"><g clip-path="url(#9690525470)"><g transform="matrix(1, 0, 0, 1, 244, 103)"><g clip-path="url(#378a9aa222)"><g clip-path="url(#b85138dfe8)"><g clip-path="url(#8ce357f990)"><path fill="#0eff67" d="M 0.371094 0.335938 L 30.769531 0.335938 L 30.769531 30.730469 L 0.371094 30.730469 Z M 0.371094 0.335938 " fill-opacity="1" fill-rule="nonzero"/></g></g></g></g></g></g><g clip-path="url(#4e782a7919)"><g clip-path="url(#4ce23977a4)"><g transform="matrix(1, 0, 0, 1, 115, 248)"><g clip-path="url(#f3f7899c7c)"><g clip-path="url(#0fc4561347)"><g clip-path="url(#0a83eeb89b)"><path fill="#0eff67" d="M 0.414062 0.863281 L 30.808594 0.863281 L 30.808594 31.257812 L 0.414062 31.257812 Z M 0.414062 0.863281 " fill-opacity="1" fill-rule="nonzero"/></g></g></g></g></g></g><g fill="#000000" fill-opacity="1"><g transform="translate(26.917971, 203.487217)"><g><path d="M 2.8125 -22.328125 L 28.53125 -32.765625 L 28.53125 -26.078125 L 11.703125 -19.5 L 28.53125 -13.015625 L 28.53125 -6.34375 L 2.8125 -16.78125 Z M 2.8125 -22.328125 "/></g></g></g><g fill="#000000" fill-opacity="1"><g transform="translate(54.032182, 203.487217)"><g><path d="M 32.578125 0 L 26.359375 -21.765625 L 20.15625 0 L 10.34375 0 L -0.703125 -38.78125 L 9.125 -38.78125 L 15.75 -12.171875 L 15.984375 -12.171875 L 23.03125 -38.78125 L 29.703125 -38.78125 L 36.75 -12.171875 L 36.984375 -12.171875 L 43.609375 -38.78125 L 53.390625 -38.78125 L 42.34375 0 Z M 32.578125 0 "/></g></g></g><g fill="#000000" fill-opacity="1"><g transform="translate(103.514692, 203.487217)"><g><path d="M 4.453125 -2.984375 C 2.203125 -5.441406 1.078125 -8.457031 1.078125 -12.03125 C 1.078125 -15.601562 2.203125 -18.625 4.453125 -21.09375 C 6.710938 -23.570312 9.582031 -24.8125 13.0625 -24.8125 C 16.257812 -24.8125 18.894531 -23.8125 20.96875 -21.8125 L 20.96875 -24.109375 L 29.28125 -24.109375 L 29.28125 0 L 21.0625 0 L 21.0625 -2.71875 L 20.96875 -2.71875 C 18.894531 -0.4375 16.257812 0.703125 13.0625 0.703125 C 9.582031 0.703125 6.710938 -0.523438 4.453125 -2.984375 Z M 11.53125 -16.109375 C 10.457031 -15.046875 9.921875 -13.6875 9.921875 -12.03125 C 9.921875 -10.375 10.4375 -9.019531 11.46875 -7.96875 C 12.5 -6.914062 13.863281 -6.390625 15.5625 -6.390625 C 17.1875 -6.390625 18.523438 -6.921875 19.578125 -7.984375 C 20.628906 -9.054688 21.15625 -10.40625 21.15625 -12.03125 C 21.15625 -13.6875 20.613281 -15.046875 19.53125 -16.109375 C 18.445312 -17.179688 17.125 -17.71875 15.5625 -17.71875 C 13.957031 -17.71875 12.613281 -17.179688 11.53125 -16.109375 Z M 11.53125 -16.109375 "/></g></g></g><g fill="#000000" fill-opacity="1"><g transform="translate(135.422329, 203.487217)"><g><path d="M 13.296875 -24.8125 C 14.679688 -24.8125 16.046875 -24.65625 17.390625 -24.34375 C 18.734375 -24.03125 19.734375 -23.71875 20.390625 -23.40625 L 21.390625 -22.9375 L 18.65625 -17.484375 C 16.78125 -18.484375 14.992188 -18.984375 13.296875 -18.984375 C 12.359375 -18.984375 11.691406 -18.878906 11.296875 -18.671875 C 10.910156 -18.472656 10.71875 -18.09375 10.71875 -17.53125 C 10.71875 -17.40625 10.734375 -17.28125 10.765625 -17.15625 C 10.796875 -17.03125 10.859375 -16.910156 10.953125 -16.796875 C 11.046875 -16.691406 11.128906 -16.597656 11.203125 -16.515625 C 11.285156 -16.441406 11.421875 -16.359375 11.609375 -16.265625 C 11.796875 -16.171875 11.941406 -16.097656 12.046875 -16.046875 C 12.160156 -16.003906 12.34375 -15.9375 12.59375 -15.84375 C 12.84375 -15.75 13.03125 -15.675781 13.15625 -15.625 C 13.28125 -15.582031 13.488281 -15.515625 13.78125 -15.421875 C 14.082031 -15.328125 14.3125 -15.265625 14.46875 -15.234375 C 15.445312 -14.953125 16.296875 -14.632812 17.015625 -14.28125 C 17.734375 -13.9375 18.488281 -13.46875 19.28125 -12.875 C 20.082031 -12.28125 20.703125 -11.53125 21.140625 -10.625 C 21.585938 -9.71875 21.8125 -8.679688 21.8125 -7.515625 C 21.8125 -2.035156 18.003906 0.703125 10.390625 0.703125 C 8.660156 0.703125 7.019531 0.4375 5.46875 -0.09375 C 3.925781 -0.625 2.804688 -1.15625 2.109375 -1.6875 L 1.078125 -2.53125 L 4.46875 -8.21875 C 4.71875 -8 5.046875 -7.738281 5.453125 -7.4375 C 5.859375 -7.144531 6.59375 -6.738281 7.65625 -6.21875 C 8.726562 -5.707031 9.65625 -5.453125 10.4375 -5.453125 C 12.15625 -5.453125 13.015625 -6.03125 13.015625 -7.1875 C 13.015625 -7.71875 12.796875 -8.132812 12.359375 -8.4375 C 11.921875 -8.738281 11.175781 -9.078125 10.125 -9.453125 C 9.070312 -9.828125 8.25 -10.171875 7.65625 -10.484375 C 6.15625 -11.265625 4.960938 -12.144531 4.078125 -13.125 C 3.203125 -14.113281 2.765625 -15.425781 2.765625 -17.0625 C 2.765625 -19.507812 3.710938 -21.410156 5.609375 -22.765625 C 7.503906 -24.128906 10.066406 -24.8125 13.296875 -24.8125 Z M 13.296875 -24.8125 "/></g></g></g><g fill="#000000" fill-opacity="1"><g transform="translate(158.542448, 203.487217)"><g><path d="M 4.453125 -2.984375 C 2.203125 -5.441406 1.078125 -8.457031 1.078125 -12.03125 C 1.078125 -15.601562 2.203125 -18.625 4.453125 -21.09375 C 6.710938 -23.570312 9.582031 -24.8125 13.0625 -24.8125 C 16.257812 -24.8125 18.894531 -23.8125 20.96875 -21.8125 L 20.96875 -24.109375 L 29.28125 -24.109375 L 29.28125 0 L 21.0625 0 L 21.0625 -2.71875 L 20.96875 -2.71875 C 18.894531 -0.4375 16.257812 0.703125 13.0625 0.703125 C 9.582031 0.703125 6.710938 -0.523438 4.453125 -2.984375 Z M 11.53125 -16.109375 C 10.457031 -15.046875 9.921875 -13.6875 9.921875 -12.03125 C 9.921875 -10.375 10.4375 -9.019531 11.46875 -7.96875 C 12.5 -6.914062 13.863281 -6.390625 15.5625 -6.390625 C 17.1875 -6.390625 18.523438 -6.921875 19.578125 -7.984375 C 20.628906 -9.054688 21.15625 -10.40625 21.15625 -12.03125 C 21.15625 -13.6875 20.613281 -15.046875 19.53125 -16.109375 C 18.445312 -17.179688 17.125 -17.71875 15.5625 -17.71875 C 13.957031 -17.71875 12.613281 -17.179688 11.53125 -16.109375 Z M 11.53125 -16.109375 "/></g></g></g><g fill="#000000" fill-opacity="1"><g transform="translate(190.638065, 203.487217)"><g><path d="M 27.625 -21.09375 C 29.882812 -18.625 31.015625 -15.601562 31.015625 -12.03125 C 31.015625 -8.457031 29.882812 -5.441406 27.625 -2.984375 C 25.375 -0.523438 22.507812 0.703125 19.03125 0.703125 C 15.832031 0.703125 13.203125 -0.4375 11.140625 -2.71875 L 11.046875 -2.71875 L 11.046875 0 L 2.8125 0 L 2.8125 -40.421875 L 11.140625 -40.421875 L 11.140625 -21.8125 C 13.203125 -23.8125 15.832031 -24.8125 19.03125 -24.8125 C 22.507812 -24.8125 25.375 -23.570312 27.625 -21.09375 Z M 20.625 -7.96875 C 21.664062 -9.019531 22.1875 -10.375 22.1875 -12.03125 C 22.1875 -13.6875 21.644531 -15.046875 20.5625 -16.109375 C 19.476562 -17.179688 18.140625 -17.71875 16.546875 -17.71875 C 14.972656 -17.71875 13.644531 -17.179688 12.5625 -16.109375 C 11.488281 -15.046875 10.953125 -13.6875 10.953125 -12.03125 C 10.953125 -10.40625 11.472656 -9.054688 12.515625 -7.984375 C 13.566406 -6.921875 14.910156 -6.390625 16.546875 -6.390625 C 18.234375 -6.390625 19.59375 -6.914062 20.625 -7.96875 Z M 20.625 -7.96875 "/></g></g></g><g fill="#000000" fill-opacity="1"><g transform="translate(222.733694, 203.487217)"><g><path d="M 3.609375 -37.546875 C 4.585938 -38.523438 5.75 -39.015625 7.09375 -39.015625 C 8.445312 -39.015625 9.609375 -38.523438 10.578125 -37.546875 C 11.546875 -36.578125 12.03125 -35.414062 12.03125 -34.0625 C 12.03125 -32.71875 11.546875 -31.5625 10.578125 -30.59375 C 9.609375 -29.625 8.445312 -29.140625 7.09375 -29.140625 C 5.75 -29.140625 4.585938 -29.625 3.609375 -30.59375 C 2.640625 -31.5625 2.15625 -32.71875 2.15625 -34.0625 C 2.15625 -35.414062 2.640625 -36.578125 3.609375 -37.546875 Z M 2.8125 -24.109375 L 2.8125 0 L 11.140625 0 L 11.140625 -24.109375 Z M 2.8125 -24.109375 "/></g></g></g><g fill="#000000" fill-opacity="1"><g transform="translate(236.925305, 203.487217)"><g><path d="M 22.515625 -38.78125 L 38.15625 0 L 28.671875 0 L 25.796875 -7.75 L 11.046875 -7.75 L 8.171875 0 L -1.3125 0 L 14.328125 -38.78125 Z M 22.796875 -15.515625 L 18.46875 -26.796875 L 18.375 -26.796875 L 14.046875 -15.515625 Z M 22.796875 -15.515625 "/></g></g></g><g fill="#000000" fill-opacity="1"><g transform="translate(273.767131, 203.487217)"><g><path d="M 11.65625 -38.78125 L 11.65625 0 L 2.8125 0 L 2.8125 -38.78125 Z M 11.65625 -38.78125 "/></g></g></g><g fill="#000000" fill-opacity="1"><g transform="translate(288.240702, 203.487217)"><g><path d="M 27.640625 -40.421875 L 8.265625 5.640625 L 1.078125 5.640625 L 20.4375 -40.421875 Z M 27.640625 -40.421875 "/></g></g></g><g fill="#000000" fill-opacity="1"><g transform="translate(316.952896, 203.487217)"><g><path d="M 2.578125 -13.015625 L 19.40625 -19.5 L 2.578125 -26.078125 L 2.578125 -32.765625 L 28.296875 -22.328125 L 28.296875 -16.78125 L 2.578125 -6.34375 Z M 2.578125 -13.015625 "/></g></g></g></svg>